ModelForces
version=1
nRows=4
nColumns=155
inDegrees=no

This file contains the forces exerted on a model during a simulation.

A force is a generalized force, meaning that it can be either a force (N) or a torque (Nm).

Units are S.I. units (second, meters, Newtons, ...)
Angles are in degrees.

endheader
time	glut_med1_r	glut_med2_r	glut_med3_r	glut_min1_r	glut_min2_r	glut_min3_r	semimem_r	semiten_r	bifemlh_r	bifemsh_r	sar_r	add_long_r	add_brev_r	add_mag1_r	add_mag2_r	add_mag3_r	tfl_r	pect_r	grac_r	glut_max1_r	glut_max2_r	glut_max3_r	iliacus_r	psoas_r	quad_fem_r	gem_r	peri_r	rect_fem_r	vas_med_r	vas_int_r	vas_lat_r	med_gas_r	lat_gas_r	soleus_r	tib_post_r	flex_dig_r	flex_hal_r	tib_ant_r	per_brev_r	per_long_r	per_tert_r	ext_dig_r	ext_hal_r	glut_med1_l	glut_med2_l	glut_med3_l	glut_min1_l	glut_min2_l	glut_min3_l	semimem_l	semiten_l	bifemlh_l	bifemsh_l	sar_l	add_long_l	add_brev_l	add_mag1_l	add_mag2_l	add_mag3_l	tfl_l	pect_l	grac_l	glut_max1_l	glut_max2_l	glut_max3_l	iliacus_l	psoas_l	quad_fem_l	gem_l	peri_l	rect_fem_l	vas_med_l	vas_int_l	vas_lat_l	med_gas_l	lat_gas_l	soleus_l	tib_post_l	flex_dig_l	flex_hal_l	tib_ant_l	per_brev_l	per_long_l	per_tert_l	ext_dig_l	ext_hal_l	ercspn_r	ercspn_l	intobl_r	intobl_l	extobl_r	extobl_l	femur_lat_meniscii_r.femur_lat_r.force.X	femur_lat_meniscii_r.femur_lat_r.force.Y	femur_lat_meniscii_r.femur_lat_r.force.Z	femur_lat_meniscii_r.femur_lat_r.torque.X	femur_lat_meniscii_r.femur_lat_r.torque.Y	femur_lat_meniscii_r.femur_lat_r.torque.Z	femur_lat_meniscii_r.meniscus_lat_r.force.X	femur_lat_meniscii_r.meniscus_lat_r.force.Y	femur_lat_meniscii_r.meniscus_lat_r.force.Z	femur_lat_meniscii_r.meniscus_lat_r.torque.X	femur_lat_meniscii_r.meniscus_lat_r.torque.Y	femur_lat_meniscii_r.meniscus_lat_r.torque.Z	femur_med_meniscii_r.femur_med_r.force.X	femur_med_meniscii_r.femur_med_r.force.Y	femur_med_meniscii_r.femur_med_r.force.Z	femur_med_meniscii_r.femur_med_r.torque.X	femur_med_meniscii_r.femur_med_r.torque.Y	femur_med_meniscii_r.femur_med_r.torque.Z	femur_med_meniscii_r.meniscus_med_r.force.X	femur_med_meniscii_r.meniscus_med_r.force.Y	femur_med_meniscii_r.meniscus_med_r.force.Z	femur_med_meniscii_r.meniscus_med_r.torque.X	femur_med_meniscii_r.meniscus_med_r.torque.Y	femur_med_meniscii_r.meniscus_med_r.torque.Z	femur_med_tibia_r.tibia_upper_r.force.X	femur_med_tibia_r.tibia_upper_r.force.Y	femur_med_tibia_r.tibia_upper_r.force.Z	femur_med_tibia_r.tibia_upper_r.torque.X	femur_med_tibia_r.tibia_upper_r.torque.Y	femur_med_tibia_r.tibia_upper_r.torque.Z	femur_med_tibia_r.femur_med_r.force.X	femur_med_tibia_r.femur_med_r.force.Y	femur_med_tibia_r.femur_med_r.force.Z	femur_med_tibia_r.femur_med_r.torque.X	femur_med_tibia_r.femur_med_r.torque.Y	femur_med_tibia_r.femur_med_r.torque.Z	femur_lat_tibia_r.tibia_upper_r.force.X	femur_lat_tibia_r.tibia_upper_r.force.Y	femur_lat_tibia_r.tibia_upper_r.force.Z	femur_lat_tibia_r.tibia_upper_r.torque.X	femur_lat_tibia_r.tibia_upper_r.torque.Y	femur_lat_tibia_r.tibia_upper_r.torque.Z	femur_lat_tibia_r.femur_lat_r.force.X	femur_lat_tibia_r.femur_lat_r.force.Y	femur_lat_tibia_r.femur_lat_r.force.Z	femur_lat_tibia_r.femur_lat_r.torque.X	femur_lat_tibia_r.femur_lat_r.torque.Y	femur_lat_tibia_r.femur_lat_r.torque.Z	aACL_R	pACL_R	aPCL_R	pPCL_R	aMCL_R	mMCL_R	pMCL_R	aLCL_R	mLCL_R	pLCL_R	aPCL_L	pPCL_L	aMCL_L	aLCL_L
      0.20855408	      9.74272677	      7.16912109	      7.69645809	      3.33106373	      3.90868587	      4.11913003	      0.00000000	    164.58658009	    177.35376464	    335.85256478	    123.02112409	      7.12245196	      5.17709634	      3.68767008	      3.11747457	      5.18831106	      3.56704835	      2.80881087	     93.14745834	      4.62683866	      7.03598204	      5.27429466	     25.38624047	     16.06726444	      4.56596155	      3.30049130	      5.58780910	    113.40789136	     41.11693102	     31.69812367	     55.31094099	      0.00000000	      0.00000000	      0.00000000	      0.00000000	      0.00000000	      0.00000000	     33.40803607	      2.48840251	      5.27771840	     21.38299906	     47.72819129	     11.97680789	      9.74272677	      7.16912109	      7.69645809	      3.33106373	      3.90868587	      4.11913003	     10.56812123	      5.25885029	     10.29460134	      9.08654004	      1.90192249	      7.12245196	      5.17709634	      3.68767008	      3.11747457	      5.18831106	      4.84065296	      2.80881087	      1.95837542	      4.62683866	      7.03598204	      5.27429466	     25.38624047	     16.06726444	      4.56596155	      3.30049130	      5.58780910	     14.24777662	      0.00000000	      0.00000000	      0.00000000	     19.37885550	      9.05426991	     43.12543581	     47.33860892	      4.20898557	      3.66581858	     11.16288492	      5.90803363	     15.87138888	      2.48535465	      7.88435438	      2.52493435	     31.34391983	     31.34391983	     11.50621365	     11.50621365	     29.05897848	     29.05897848	     81.83512594	     51.73835430	      4.17740796	     -2.85889837	      1.89779155	     32.44655671	    -81.83512594	    -51.73835430	     -4.17740796	      1.35244163	     -2.23379743	      1.22635005	      0.08354805	     -0.00169072	     -0.05044023	      0.02004456	     -0.00131238	      0.03324641	     -0.08354805	      0.00169072	      0.05044023	     -0.00015923	      0.00245292	     -0.00034703	   -933.92334955	   -379.78539750	    324.15057149	     -8.50057518	     22.63071766	      2.23209282	    933.92334955	    379.78539750	   -324.15057149	    137.35543501	    -16.38159085	    376.33854750	   -349.80735624	   -155.36421849	    -95.45197915	      5.08116815	    -12.11675629	      1.11623585	    349.80735624	    155.36421849	     95.45197915	    -42.29761590	      8.57613033	    141.03559696	      0.00000000	      0.00000000	    970.12795867	    610.66223167	     24.68090682	      9.92392423	      0.00000000	      0.00000000	      0.00000000	      0.00000000	      0.00000000	      0.00000000	      0.00000001	      0.00000000
      0.20857380	      9.74215951	      7.16873344	      7.69603678	      3.33089119	      3.90849789	      4.11889017	      0.00000000	    164.59563243	    177.36921021	    335.85970028	    123.02003093	      7.12206229	      5.17683068	      3.68747220	      3.11730294	      5.18799982	      3.56662332	      2.80866438	     93.14823486	      4.62658795	      7.03559978	      5.27400324	     25.38553095	     16.06645738	      4.56571984	      3.30037495	      5.58750104	    113.45356300	     41.11996871	   5368.50606271	     55.31513347	      0.00000000	      0.00000000	      0.00000000	      0.00000000	      0.00000000	      0.00000000	     33.40470697	      2.48686510	      5.27659611	     21.37923261	     47.71951745	     11.97438688	      9.74215951	      7.16873344	      7.69603678	      3.33089119	      3.90849789	      4.11889017	     10.56851249	      5.25854586	     10.29394229	      9.08605856	      1.90182444	      7.12206229	      5.17683068	      3.68747220	      3.11730294	      5.18799982	      4.84046034	      2.80866438	      1.95827267	      4.62658795	      7.03559978	      5.27400324	     25.38553095	     16.06645738	      4.56571984	      3.30037495	      5.58750104	     14.24685972	      0.00000000	      0.00000000	      0.00000000	     19.37791280	      9.05380172	     43.12260866	     47.33736801	      4.20839226	      3.66528560	     11.16218909	      5.90763817	     15.87057549	      2.48523012	      7.88407873	      2.52485376	     31.34229260	     31.34229260	     11.50556544	     11.50556544	     29.05839403	     29.05839403	     77.24680767	     51.70565532	      5.30669837	     -3.31623493	      1.80334926	     30.59007482	    -77.24680767	    -51.70565532	     -5.30669837	      1.36438625	     -2.15754613	      1.27306278	      0.07685313	     -0.00079405	     -0.04662386	      0.01853576	     -0.00120761	      0.03057555	     -0.07685313	      0.00079405	      0.04662386	     -0.00015270	      0.00226293	     -0.00029153	   -929.99949626	   -384.78383379	    321.02240295	     -8.51029627	     22.46739467	      2.48281337	    929.99949626	    384.78383379	   -321.02240295	    136.14674539	    -16.29229295	    374.68062315	   -348.03550882	   -157.57117180	    -96.74334338	      5.15177832	    -12.12711735	      1.23363165	    348.03550882	    157.57117180	     96.74334338	    -42.87174516	      8.55591243	    140.28108469	      0.00000000	      0.00000000	    972.36349229	    616.50963417	     26.73141964	     12.48085900	      0.00000000	      0.00000000	      0.00000000	      0.00000000	      0.00000000	      0.00000000	      0.00000001	      0.00000000
      0.20859351	      9.74159239	      7.16834588	      7.69561557	      3.33071870	      3.90830996	      4.11865036	      0.00000000	    164.58424292	    177.35766436	    335.74861178	    123.00488301	      7.12167272	      5.17656508	      3.68727436	      3.11713136	      5.18768867	      3.56665282	      2.80851793	     93.13570698	      4.62633730	      7.03521762	      5.27371190	     25.38482161	     16.06565053	      4.56547819	      3.30025864	      5.58719300	    113.47757954	     41.09749724	   1548.05209967	     55.28670350	      0.00000000	      0.00000000	      0.00000000	      0.00000000	      0.00000000	      0.00000000	     33.40280536	      2.48505563	      5.27515377	     21.37539557	     47.71139113	     11.97221169	      9.74159239	      7.16834588	      7.69561557	      3.33071870	      3.90830996	      4.11865036	     10.56890248	      5.25824152	     10.29328340	      9.08557721	      1.90172641	      7.12167272	      5.17656508	      3.68727436	      3.11713136	      5.18768867	      4.84026778	      2.80851793	      1.95816995	      4.62633730	      7.03521762	      5.27371190	     25.38482161	     16.06565053	      4.56547819	      3.30025864	      5.58719300	     14.24594305	      0.00000000	      0.00000000	      0.00000000	     19.37697010	      9.05333356	     43.11978209	     47.33612739	      4.20779898	      3.66475276	     11.16149345	      5.90724280	     15.86976228	      2.48510563	      7.88380305	      2.52477314	     31.34066580	     31.34066580	     11.50491741	     11.50491741	     29.05780975	     29.05780975	     65.15213625	     51.26751771	      7.88012377	     -4.34927210	      1.54878954	     25.70110227	    -65.15213625	    -51.26751771	     -7.88012377	      1.38144050	     -1.93989871	      1.38118371	      0.05990994	      0.00098268	     -0.03673236	      0.01461949	     -0.00094228	      0.02382066	     -0.05990994	     -0.00098268	      0.03673236	     -0.00013197	      0.00177548	     -0.00016945	   -918.44300127	   -396.98170028	    312.48884327	     -8.52599356	     22.01333670	      3.10988692	    918.44300127	    396.98170028	   -312.48884327	    132.83192623	    -16.03803623	    369.83142386	   -343.12149199	   -163.04620453	   -100.00138604	      5.32855432	    -12.14213488	      1.52834838	    343.12149199	    163.04620453	    100.00138604	    -44.31867430	      8.49563239	    138.19868027	      0.00000000	      0.00000000	    978.09458410	    631.87258979	     32.23824510	     19.31024864	      0.00000000	      0.00000000	      0.00000000	      0.00000000	      0.00000000	      0.00000000	      0.00000001	      0.00000000
      0.20862720	      9.74062363	      7.16768386	      7.69489606	      3.33042404	      3.90798893	      4.11824073	      0.00000000	    164.54417574	    177.31025621	    335.44271186	    122.96543300	      7.12100725	      5.17611139	      3.68693642	      3.11683825	      5.18715714	      3.56718411	      2.80826775	     93.10124226	      4.62590914	      7.03456481	      5.27321422	     25.38360993	     16.06427227	      4.56506540	      3.30005995	      5.58666668	    113.50663644	     41.03396027	    230.15595593	     55.20902010	      0.00000000	      0.00000000	      0.00000000	      0.00000000	      0.00000000	      0.00000000	     33.40100591	      2.48168568	      5.27235772	     21.36877032	     47.69805864	     11.96874140	      9.74062363	      7.16768386	      7.69489606	      3.33042404	      3.90798893	      4.11824073	     10.56956599	      5.25772164	     10.29215785	      9.08475496	      1.90155895	      7.12100725	      5.17611139	      3.68693642	      3.11683825	      5.18715714	      4.83993885	      2.80826775	      1.95799447	      4.62590914	      7.03456481	      5.27321422	     25.38360993	     16.06427227	      4.56506540	      3.30005995	      5.58666668	     14.24437719	      0.00000000	      0.00000000	      0.00000000	     19.37535923	      9.05253361	     43.11495332	     47.33400810	      4.20678527	      3.66384255	     11.16030513	      5.90656741	     15.86837307	      2.48489296	      7.88333190	      2.52463532	     31.33788687	     31.33788687	     11.50381042	     11.50381042	     29.05681166	     29.05681166	     61.08611712	     50.97311694	      8.59689331	     -4.63316575	      1.46169308	     24.05923584	    -61.08611712	    -50.97311694	     -8.59689331	      1.38186007	     -1.86122958	      1.41220506	      0.05362383	      0.00140949	     -0.03321696	      0.01322578	     -0.00084369	      0.02131667	     -0.05362383	     -0.00140949	      0.03321696	     -0.00012314	      0.00159872	     -0.00013237	   -912.52203906	   -399.19421292	    309.09609529	     -8.49965514	     21.81749266	      3.28369389	    912.52203906	    399.19421292	   -309.09609529	    131.47582327	    -15.91772234	    367.38943855	   -340.96086260	   -164.58943485	   -100.71912891	      5.37451510	    -12.12044603	      1.62640225	    340.96086260	    164.58943485	    100.71912891	    -44.64399085	      8.45990166	    137.29300073	      0.00000000	      0.00000000	    980.30736400	    637.15404450	     34.09751685	     21.59205928	      0.00000000	      0.00000000	      0.00000000	      0.00000000	      0.00000000	      0.00000000	      0.00000001	      0.00000000
